<svg width="24" height="24" viewBox="0 0 24 24" fill="none" xmlns="http://www.w3.org/2000/svg">
<path d="M11.9603 8.66219C11.863 8.64076 11.777 8.62182 11.7065 8.6044L11.0901 11.099C11.1486 11.1135 11.2171 11.1316 11.2937 11.1518C12.1436 11.3765 13.9958 11.8661 14.3144 10.5766C14.6416 9.25256 12.839 8.85565 11.9603 8.66219Z" fill="#0A0A0A"/>
<path d="M10.7808 12.3504L10.1022 15.0969C10.1721 15.1142 10.2537 15.1356 10.3448 15.1596C11.3536 15.4249 13.5226 15.9955 13.8744 14.572C14.2327 13.122 12.1191 12.6508 11.0794 12.419C10.9654 12.3936 10.8644 12.371 10.7808 12.3504Z" fill="#0A0A0A"/>
<path fill-rule="evenodd" clip-rule="evenodd" d="M21.708 14.3988C20.3831 19.7604 14.9627 23.0328 9.6011 21.7079C4.23952 20.383 0.967121 14.9626 2.29199 9.60101C3.61686 4.23943 9.0373 0.967029 14.3989 2.2919C19.7605 3.61677 23.0329 9.03721 21.708 14.3988ZM16.7158 10.5751C16.5544 11.6819 15.9387 12.2196 15.1333 12.4085C16.2493 12.986 16.8222 13.8777 16.2844 15.4261C15.6096 17.3545 14.0776 17.5364 11.9531 17.1321L11.5198 18.8857L10.2684 18.5765L10.6937 16.8554C10.3768 16.777 10.0436 16.6947 9.70433 16.6023L9.27703 18.3315L8.02564 18.0223L8.45897 16.2687C8.45897 16.2687 8.23176 16.2039 5.95012 15.6401L6.56943 14.2153C6.66681 14.2412 6.75814 14.2663 6.84384 14.2899C7.54287 14.4822 7.86728 14.5714 8.04511 14.1402L9.43058 8.53345C9.46549 7.92075 9.01182 7.81919 8.1593 7.62833C8.08951 7.6127 8.01704 7.59648 7.94195 7.57933L8.27124 6.24672C8.5645 6.32065 8.82099 6.38548 9.04732 6.44268C9.98881 6.68065 10.4084 6.78671 10.7821 6.86716L11.2881 4.81946L12.5395 5.12868L12.0435 7.13575C12.3787 7.20994 12.7139 7.28415 13.0389 7.36447L13.5308 5.37365L14.7822 5.68287L14.2762 7.73057C15.851 8.26625 16.9431 9.06205 16.7158 10.5751Z" fill="#0A0A0A"/>
</svg>
