<svg width="24" height="24" viewBox="0 0 24 24" fill="none" xmlns="http://www.w3.org/2000/svg">
<path d="M11.1608 8.76926C11.0612 8.7718 10.9732 8.77405 10.9005 8.77405V11.3437C10.9608 11.3437 11.0316 11.3448 11.1109 11.3461C11.9899 11.3603 13.9054 11.3913 13.9054 10.0631C13.9054 8.69918 12.0602 8.7463 11.1608 8.76926Z" fill="#0A0A0A"/>
<path d="M10.9005 12.6327V15.4618C10.9726 15.4618 11.057 15.4631 11.1511 15.4645C12.1941 15.4801 14.4367 15.5136 14.4367 14.0473C14.4367 12.5538 12.2718 12.6033 11.2069 12.6277C11.0901 12.6304 10.9865 12.6327 10.9005 12.6327Z" fill="#0A0A0A"/>
<path fill-rule="evenodd" clip-rule="evenodd" d="M22 12C22 17.5228 17.5228 22 12 22C6.47715 22 2 17.5228 2 12C2 6.47715 6.47715 2 12 2C17.5228 2 22 6.47715 22 12ZM16.2363 9.48553C16.3451 10.5988 15.8764 11.2684 15.1398 11.6451C16.3618 11.938 17.1319 12.6662 16.9813 14.2984C16.7887 16.3323 15.3451 16.8764 13.1856 16.9936V18.8H11.8966V17.027C11.5701 17.027 11.227 17.027 10.8754 17.0187V18.8H9.58641V16.9936C9.58641 16.9936 9.3503 16.9852 7.00003 16.9852L7.25946 15.4535C7.36021 15.4552 7.4549 15.4577 7.54376 15.46C8.26849 15.479 8.60483 15.4878 8.67404 15.0266V9.25114C8.56096 8.64796 8.09617 8.65819 7.22276 8.67742C7.15126 8.67899 7.07701 8.68062 7 8.68199V7.30929C7.30249 7.31072 7.56709 7.31212 7.80057 7.31337C8.77155 7.31853 9.20432 7.32084 9.58638 7.30929V5.2H10.8754V7.26743C11.2186 7.25907 11.5618 7.2507 11.8966 7.2507V5.2H13.1856V7.30929C14.8429 7.45156 16.094 7.96215 16.2363 9.48553Z" fill="#0A0A0A"/>
</svg>
