<svg width="24" height="24" viewBox="0 0 24 24" fill="none" xmlns="http://www.w3.org/2000/svg">
<path d="M11 2.75C11 2.33579 11.3358 2 11.75 2C12.1642 2 12.5 2.33579 12.5 2.75V5.25C12.5 5.66421 12.1642 6 11.75 6C11.3358 6 11 5.66421 11 5.25V2.75Z" fill="#0A0A0A"/>
<path fill-rule="evenodd" clip-rule="evenodd" d="M12 17C14.7614 17 17 14.7614 17 12C17 9.23858 14.7614 7 12 7C9.23858 7 7 9.23858 7 12C7 14.7614 9.23858 17 12 17ZM12 15.5C13.933 15.5 15.5 13.933 15.5 12C15.5 10.067 13.933 8.5 12 8.5C10.067 8.5 8.5 10.067 8.5 12C8.5 13.933 10.067 15.5 12 15.5Z" fill="#0A0A0A"/>
<path d="M19.3588 4.53033C19.0659 4.23744 18.591 4.23744 18.2981 4.53033L16.5303 6.2981C16.2374 6.59099 16.2374 7.06586 16.5303 7.35876C16.8232 7.65165 17.2981 7.65165 17.591 7.35876L19.3588 5.59099C19.6517 5.2981 19.6517 4.82322 19.3588 4.53033Z" fill="#0A0A0A"/>
<path d="M4.53033 5.94439C4.23744 5.6515 4.23744 5.17663 4.53033 4.88373C4.82322 4.59084 5.2981 4.59084 5.59099 4.88373L7.35876 6.6515C7.65165 6.94439 7.65165 7.41927 7.35876 7.71216C7.06586 8.00505 6.59099 8.00505 6.2981 7.71216L4.53033 5.94439Z" fill="#0A0A0A"/>
<path d="M16.5303 16.8837C16.2374 17.1766 16.2374 17.6515 16.5303 17.9444L18.2963 19.7104C18.5892 20.0033 19.0641 20.0033 19.357 19.7104C19.6499 19.4175 19.6499 18.9426 19.357 18.6497L17.591 16.8837C17.2981 16.5908 16.8232 16.5908 16.5303 16.8837Z" fill="#0A0A0A"/>
<path d="M6.29969 16.5303C6.59258 16.2374 7.06745 16.2374 7.36035 16.5303C7.65324 16.8232 7.65324 17.2981 7.36035 17.591L5.59101 19.3603C5.29811 19.6532 4.82324 19.6532 4.53035 19.3603C4.23745 19.0674 4.23745 18.5926 4.53035 18.2997L6.29969 16.5303Z" fill="#0A0A0A"/>
<path d="M11.75 18C11.3358 18 11 18.3358 11 18.75V21.25C11 21.6642 11.3358 22 11.75 22C12.1642 22 12.5 21.6642 12.5 21.25V18.75C12.5 18.3358 12.1642 18 11.75 18Z" fill="#0A0A0A"/>
<path d="M18 12.25C18 11.8358 18.3358 11.5 18.75 11.5H21.25C21.6642 11.5 22 11.8358 22 12.25C22 12.6642 21.6642 13 21.25 13H18.75C18.3358 13 18 12.6642 18 12.25Z" fill="#0A0A0A"/>
<path d="M2.75 11.5C2.33579 11.5 2 11.8358 2 12.25C2 12.6642 2.33579 13 2.75 13H5.25C5.66421 13 6 12.6642 6 12.25C6 11.8358 5.66421 11.5 5.25 11.5H2.75Z" fill="#0A0A0A"/>
</svg>
