<svg width="24" height="24" viewBox="0 0 24 24" fill="none" xmlns="http://www.w3.org/2000/svg">
<path fill-rule="evenodd" clip-rule="evenodd" d="M6 3C4.34315 3 3 4.34315 3 6V18C3 19.6569 4.34315 21 6 21H18C19.6569 21 21 19.6569 21 18V6C21 4.34315 19.6569 3 18 3H6ZM9.8834 15.2836C9.86998 15.2701 9.85708 15.2564 9.84469 15.2424L7.35723 12.7549C7.00826 12.4059 7.00826 11.8401 7.35723 11.4912C7.70619 11.1422 8.27197 11.1422 8.62093 11.4912L10.5165 13.3867L15.5701 8.33314C15.919 7.98417 16.4848 7.98417 16.8338 8.33313C17.1827 8.6821 17.1827 9.24788 16.8338 9.59685L11.1483 15.2823L11.1471 15.2836C10.7981 15.6325 10.2324 15.6325 9.8834 15.2836Z" fill="#0A0A0A"/>
</svg>
