<svg width="24" height="24" viewBox="0 0 24 24" fill="none" xmlns="http://www.w3.org/2000/svg">
<path d="M12.005 17.25C12.4157 17.25 12.7563 17.0996 13.0768 16.7787L20.6194 9.05659C20.8798 8.79585 21 8.48496 21 8.1139C21 7.36175 20.409 6.75 19.6578 6.75C19.2871 6.75 18.9466 6.91046 18.6761 7.18123L12.015 14.0408L5.33389 7.18123C5.06344 6.91046 4.73289 6.75 4.35225 6.75C3.601 6.75 3 7.36175 3 8.1139C3 8.48496 3.13022 8.79585 3.39065 9.05659L10.9332 16.7787C11.2538 17.1096 11.5943 17.25 12.005 17.25Z" fill="#0A0A0A"/>
</svg>
