<svg width="24" height="24" viewBox="0 0 24 24" fill="none" xmlns="http://www.w3.org/2000/svg">
<path d="M17.25 11.995C17.25 11.5843 17.0996 11.2437 16.7787 10.9232L9.05659 3.38063C8.79585 3.1202 8.48496 3 8.1139 3C7.36175 3 6.75 3.59098 6.75 4.34224C6.75 4.71285 6.91046 5.05342 7.18123 5.32387L14.0408 11.985L7.18123 18.6661C6.91046 18.9366 6.75 19.2671 6.75 19.6477C6.75 20.399 7.36175 21 8.1139 21C8.48496 21 8.79585 20.8698 9.05659 20.6093L16.7787 13.0668C17.1096 12.7462 17.25 12.4057 17.25 11.995Z" fill="#0A0A0A"/>
</svg>
