<svg width="24" height="24" viewBox="0 0 24 24" fill="none" xmlns="http://www.w3.org/2000/svg">
<path d="M11.995 6.75C11.5843 6.75 11.2437 6.90043 10.9232 7.22135L3.38063 14.9434C3.1202 15.2042 3 15.515 3 15.8861C3 16.6383 3.59098 17.25 4.34224 17.25C4.71285 17.25 5.05342 17.0895 5.32387 16.8188L11.985 9.95917L18.6661 16.8188C18.9366 17.0895 19.2671 17.25 19.6477 17.25C20.399 17.25 21 16.6383 21 15.8861C21 15.515 20.8698 15.2042 20.6093 14.9434L13.0668 7.22135C12.7462 6.8904 12.4057 6.75 11.995 6.75Z" fill="#0A0A0A"/>
</svg>
