<svg width="24" height="24" viewBox="0 0 24 24" fill="none" xmlns="http://www.w3.org/2000/svg">
<path d="M6.75 11.995C6.75 11.5843 6.90043 11.2437 7.22135 10.9232L14.9434 3.38063C15.2042 3.1202 15.515 3 15.8861 3C16.6383 3 17.25 3.59098 17.25 4.34224C17.25 4.71285 17.0895 5.05342 16.8188 5.32387L9.95917 11.985L16.8188 18.6661C17.0895 18.9366 17.25 19.2671 17.25 19.6477C17.25 20.399 16.6383 21 15.8861 21C15.515 21 15.2042 20.8698 14.9434 20.6093L7.22135 13.0668C6.8904 12.7462 6.75 12.4057 6.75 11.995Z" fill="#0A0A0A"/>
</svg>
