<svg width="24" height="24" viewBox="0 0 24 24" fill="none" xmlns="http://www.w3.org/2000/svg">
<path d="M18.921 19.0789C19.5169 18.483 19.5169 17.5168 18.921 16.9209L13.658 11.6579L19.079 6.2369C19.6749 5.64098 19.6749 4.67481 19.079 4.07889C18.4831 3.48297 17.5169 3.48297 16.921 4.07889L11.5 9.4999L5.97288 3.97282C5.37696 3.3769 4.41078 3.3769 3.81486 3.97282C3.21894 4.56874 3.21894 5.53492 3.81486 6.13084L9.34194 11.6579L3.97287 17.027C3.37695 17.6229 3.37695 18.5891 3.97287 19.185C4.56879 19.7809 5.53497 19.7809 6.13089 19.185L11.5 13.8159L16.763 19.0789C17.3589 19.6749 18.3251 19.6749 18.921 19.0789Z" fill="#0A0A0A"/>
</svg>
