<svg width="16" height="8" viewBox="0 0 16 8" fill="none" xmlns="http://www.w3.org/2000/svg">
<path d="M1.49467 3.52419C1.1963 3.40323 1 3.12903 1 2.83871C1 2.3629 1.33763 2 1.79305 2C2.03646 2 2.34268 2.1371 2.53898 2.21774L8.00393 4.41129L13.461 2.21774C13.6573 2.1371 13.9714 2 14.207 2C14.6624 2 15 2.3629 15 2.83871C15 3.12903 14.8037 3.40323 14.5053 3.52419L9.15031 5.67742C8.78912 5.82258 8.34941 6 8.00393 6C7.65059 6 7.21873 5.82258 6.85754 5.67742L1.49467 3.52419Z" fill="#0A0A0A"/>
</svg>
