<svg width="24" height="24" viewBox="0 0 24 24" fill="none" xmlns="http://www.w3.org/2000/svg">
<path d="M12 2C11.1716 2 10.5 2.67157 10.5 3.5V10.5C10.5 11.3284 11.1716 12 12 12C12.8284 12 13.5 11.3284 13.5 10.5V3.5C13.5 2.67157 12.8284 2 12 2Z" fill="#0A0A0A"/>
<path d="M18.7405 5.81998C18.7252 5.80458 18.7098 5.78969 18.6933 5.77566C18.5337 5.6405 17.6139 4.93377 16.75 5.79692C15.9358 6.61043 16.4822 7.50856 16.655 7.74864C16.6856 7.7911 16.7209 7.82881 16.7575 7.86622C17.9284 9.06391 18.65 10.702 18.65 12.5085C18.65 16.178 15.6727 19.1527 12 19.1527C8.32731 19.1527 5.35 16.178 5.35 12.5085C5.35 10.702 6.0716 9.0639 7.24253 7.86621C7.2791 7.82881 7.3144 7.7911 7.34506 7.74871C7.51865 7.50875 8.07114 6.61053 7.29774 5.79692C6.51826 4.97692 5.58149 5.57375 5.34098 5.75137C5.30084 5.78101 5.26475 5.81451 5.22973 5.85005C3.5416 7.56333 2.5 9.9144 2.5 12.5085C2.5 17.7506 6.75329 22.0002 12 22.0002C17.2467 22.0002 21.5 17.7506 21.5 12.5085C21.5 9.89919 20.4462 7.53578 18.7405 5.81998Z" fill="#0A0A0A"/>
</svg>
