<svg width="24" height="24" viewBox="0 0 24 24" fill="none" xmlns="http://www.w3.org/2000/svg">
<path d="M12 2C11.1716 2 10.5 2.67157 10.5 3.5V11.5C10.5 12.3284 11.1716 13 12 13C12.8284 13 13.5 12.3284 13.5 11.5V3.5C13.5 2.67157 12.8284 2 12 2Z" fill="#0A0A0A"/>
<path d="M20.0489 6.13569C19.5567 5.46934 18.5962 5.47487 18.0104 6.06066C17.4246 6.64645 17.4413 7.59007 17.8898 8.2866C18.5924 9.37777 19 10.6768 19 12.0711C19 15.9371 15.866 19.0711 12 19.0711C8.13401 19.0711 5 15.9371 5 12.0711C5 10.6768 5.40763 9.37777 6.1102 8.2866C6.55868 7.59007 6.57538 6.64645 5.98959 6.06066C5.40381 5.47487 4.44333 5.46934 3.95113 6.13569C2.7249 7.7958 2 9.84878 2 12.0711C2 17.5939 6.47715 22.0711 12 22.0711C17.5228 22.0711 22 17.5939 22 12.0711C22 9.84878 21.2751 7.7958 20.0489 6.13569Z" fill="#0A0A0A"/>
</svg>
