<svg width="24" height="24" viewBox="0 0 24 24" fill="none" xmlns="http://www.w3.org/2000/svg">
<path d="M18.389 5.21187C16.6516 3.47449 14.2515 2.3999 11.6003 2.3999C6.29811 2.3999 1.99982 6.6982 1.99982 12.0004C1.99982 17.3026 6.29811 21.6009 11.6003 21.6009C14.4146 21.6009 16.946 20.39 18.7021 18.4608C19.2378 17.8722 19.0521 16.9682 18.3899 16.5268C17.7285 16.0858 16.8437 16.2785 16.2724 16.8312C15.0631 18.001 13.4158 18.7208 11.6004 18.7208C7.8889 18.7208 4.88009 15.712 4.88009 12.0004C4.88009 8.28887 7.8889 5.28006 11.6005 5.28006C13.4562 5.28006 15.1363 6.03226 16.3525 7.2484L14.7576 8.84321C14.177 9.42386 14.546 10.4182 15.3649 10.4794L20.9682 10.8988C21.5545 10.9426 22.0422 10.454 21.9971 9.86776L21.5655 4.25635C21.5023 3.43558 20.5032 3.0697 19.9249 3.6556L18.389 5.21187Z" fill="#0A0A0A"/>
</svg>
