<svg width="24" height="24" viewBox="0 0 24 24" fill="none" xmlns="http://www.w3.org/2000/svg">
<path d="M7.70708 16.1924C7.31655 15.8018 7.31655 15.1687 7.70708 14.7781L10.5355 11.9497L7.70708 9.12134C7.31655 8.73082 7.31655 8.09765 7.70708 7.70713C8.0976 7.31661 8.73077 7.31661 9.12129 7.70713L11.9497 10.5355L14.7781 7.70708C15.1687 7.31655 15.8018 7.31655 16.1924 7.70708C16.5829 8.0976 16.5829 8.73077 16.1924 9.12129L13.3639 11.9497L16.1924 14.7782C16.5829 15.1687 16.5829 15.8019 16.1924 16.1924C15.8018 16.5829 15.1687 16.5829 14.7781 16.1924L11.9497 13.364L9.12129 16.1924C8.73077 16.5829 8.0976 16.5829 7.70708 16.1924Z" fill="#0A0A0A"/>
<path fill-rule="evenodd" clip-rule="evenodd" d="M22 12C22 17.5228 17.5228 22 12 22C6.47715 22 2 17.5228 2 12C2 6.47715 6.47715 2 12 2C17.5228 2 22 6.47715 22 12ZM20.5 12C20.5 16.6944 16.6944 20.5 12 20.5C7.30558 20.5 3.5 16.6944 3.5 12C3.5 7.30558 7.30558 3.5 12 3.5C16.6944 3.5 20.5 7.30558 20.5 12Z" fill="#0A0A0A"/>
</svg>
