<svg width="24" height="24" viewBox="0 0 24 24" fill="none" xmlns="http://www.w3.org/2000/svg">
<path d="M9.53416 15.8853C9.51923 15.8703 9.50487 15.8551 9.49108 15.8394L6.70711 13.0555C6.31658 12.6649 6.31658 12.0318 6.70711 11.6413C7.09763 11.2507 7.7308 11.2507 8.12132 11.6413L10.2426 13.7626L15.8981 8.1071C16.2886 7.71658 16.9218 7.71658 17.3123 8.1071C17.7029 8.49763 17.7029 9.13079 17.3123 9.52132L10.9497 15.8839L10.9484 15.8853C10.5579 16.2758 9.92469 16.2758 9.53416 15.8853Z" fill="#0A0A0A"/>
<path fill-rule="evenodd" clip-rule="evenodd" d="M22 12C22 17.5228 17.5228 22 12 22C6.47715 22 2 17.5228 2 12C2 6.47715 6.47715 2 12 2C17.5228 2 22 6.47715 22 12ZM20.5 12C20.5 16.6944 16.6944 20.5 12 20.5C7.30558 20.5 3.5 16.6944 3.5 12C3.5 7.30558 7.30558 3.5 12 3.5C16.6944 3.5 20.5 7.30558 20.5 12Z" fill="#0A0A0A"/>
</svg>
