<svg width="16" height="16" viewBox="0 0 16 16" fill="none" xmlns="http://www.w3.org/2000/svg">
<path d="M4.8 0.5H11.2C12.0483 0.5 12.6545 0.500389 13.1297 0.539212C13.599 0.577558 13.8963 0.650894 14.135 0.772484C14.6054 1.01217 14.9878 1.39462 15.2275 1.86502C15.3491 2.10366 15.4224 2.40099 15.4608 2.87032C15.4996 3.34549 15.5 3.95167 15.5 4.8V11.2C15.5 12.0483 15.4996 12.6545 15.4608 13.1297C15.4224 13.599 15.3491 13.8963 15.2275 14.135C14.9878 14.6054 14.6054 14.9878 14.135 15.2275C13.8963 15.3491 13.599 15.4224 13.1297 15.4608C12.6545 15.4996 12.0483 15.5 11.2 15.5H4.8C3.95167 15.5 3.34549 15.4996 2.87032 15.4608C2.40099 15.4224 2.10366 15.3491 1.86502 15.2275C1.39462 14.9878 1.01217 14.6054 0.772484 14.135C0.650894 13.8963 0.577558 13.599 0.539212 13.1297C0.500389 12.6545 0.5 12.0483 0.5 11.2V4.8C0.5 3.95167 0.500389 3.34549 0.539212 2.87032C0.577558 2.40099 0.650894 2.10366 0.772484 1.86502C1.01217 1.39462 1.39462 1.01217 1.86502 0.772484C2.10366 0.650894 2.40099 0.577558 2.87032 0.539212C3.34549 0.500389 3.95167 0.5 4.8 0.5Z" fill="#2C2C2C" fill-opacity="0.7" stroke="#FCFCFC"/>
</svg>
