<svg width="40" height="40" viewBox="0 0 40 40" fill="none" xmlns="http://www.w3.org/2000/svg">
<path d="M34.9857 14.5956C36.0783 14.5956 36.6666 13.9905 36.6666 12.8979V8.81316C36.6666 5.21592 34.784 3.33325 31.1363 3.33325H27.0516C25.959 3.33325 25.3538 3.92159 25.3538 5.01421C25.3538 6.09002 25.959 6.67835 27.0516 6.67835H30.9178C32.4474 6.67835 33.3215 7.48521 33.3215 9.11574V12.8979C33.3215 13.9905 33.9099 14.5956 34.9857 14.5956ZM5.01427 14.5956C6.10689 14.5956 6.67841 13.9905 6.67841 12.8979V9.11574C6.67841 7.48521 7.5357 6.67835 9.08218 6.67835H12.9484C14.041 6.67835 14.6461 6.09002 14.6461 5.01421C14.6461 3.92159 14.041 3.33325 12.9484 3.33325H8.86365C5.23279 3.33325 3.33331 5.19911 3.33331 8.81316V12.8979C3.33331 13.9905 3.93846 14.5956 5.01427 14.5956ZM12.6962 19.2687H18.5291C18.9494 19.2687 19.2688 18.9493 19.2688 18.5459V12.6962C19.2688 12.2759 18.9494 11.9565 18.5291 11.9565H12.6962C12.276 11.9565 11.9566 12.2759 11.9566 12.6962V18.5459C11.9566 18.9493 12.276 19.2687 12.6962 19.2687ZM21.454 19.2687H27.2869C27.7072 19.2687 28.0265 18.9493 28.0265 18.5459V12.6962C28.0265 12.2759 27.7072 11.9565 27.2869 11.9565H21.454C21.0338 11.9565 20.7144 12.2759 20.7144 12.6962V18.5459C20.7144 18.9493 21.0338 19.2687 21.454 19.2687ZM13.419 17.8063V13.419H17.8063V17.8063H13.419ZM22.1768 17.8063V13.419H26.5641V17.8063H22.1768ZM12.6962 28.0265H18.5291C18.9494 28.0265 19.2688 27.7239 19.2688 27.3037V21.4539C19.2688 21.0505 18.9494 20.7311 18.5291 20.7311H12.6962C12.276 20.7311 11.9566 21.0505 11.9566 21.4539V27.3037C11.9566 27.7239 12.276 28.0265 12.6962 28.0265ZM20.9329 22.7651H22.7651V20.9328H20.9329V22.7651ZM25.9926 22.7651H27.808V20.9328H25.9926V22.7651ZM13.419 26.5809V22.1768H17.8063V26.5809H13.419ZM23.4543 25.2865H25.2866V23.4711H23.4543V25.2865ZM8.86365 36.6666H12.9484C14.041 36.6666 14.6461 36.0614 14.6461 34.9856C14.6461 33.9098 14.041 33.3047 12.9484 33.3047H9.08218C7.5357 33.3047 6.67841 32.5146 6.67841 30.8841V27.102C6.67841 26.0093 6.09008 25.4042 5.01427 25.4042C3.92165 25.4042 3.33331 26.0093 3.33331 27.102V31.1867C3.33331 34.7839 5.23279 36.6666 8.86365 36.6666ZM27.0516 36.6666H31.1363C34.784 36.6666 36.6666 34.7839 36.6666 31.1867V27.102C36.6666 26.0093 36.0615 25.4042 34.9857 25.4042C33.8931 25.4042 33.3215 26.0093 33.3215 27.102V30.8841C33.3215 32.5146 32.4474 33.3047 30.9178 33.3047H27.0516C25.959 33.3047 25.3538 33.9098 25.3538 34.9856C25.3538 36.0614 25.959 36.6666 27.0516 36.6666ZM20.9329 27.808H22.7651V25.9925H20.9329V27.808ZM25.9926 27.808H27.808V25.9925H25.9926V27.808Z" fill="#0A0A0A"/>
</svg>
