<svg width="24" height="24" viewBox="0 0 24 24" fill="none" xmlns="http://www.w3.org/2000/svg">
<path d="M20.9914 8.75744C21.647 8.75744 22 8.39435 22 7.73878V5.28795C22 3.1296 20.8704 2 18.6818 2H16.231C15.5754 2 15.2123 2.353 15.2123 3.00857C15.2123 3.65406 15.5754 4.00706 16.231 4.00706H18.5507C19.4685 4.00706 19.9929 4.49118 19.9929 5.46949V7.73878C19.9929 8.39435 20.3459 8.75744 20.9914 8.75744ZM3.00857 8.75744C3.66415 8.75744 4.00706 8.39435 4.00706 7.73878V5.46949C4.00706 4.49118 4.52143 4.00706 5.44932 4.00706H7.76904C8.42461 4.00706 8.7877 3.65406 8.7877 3.00857C8.7877 2.353 8.42461 2 7.76904 2H5.3182C3.13969 2 2 3.11952 2 5.28795V7.73878C2 8.39435 2.36309 8.75744 3.00857 8.75744ZM7.61775 11.5613H11.1175C11.3696 11.5613 11.5613 11.3696 11.5613 11.1276V7.61775C11.5613 7.36561 11.3696 7.17398 11.1175 7.17398H7.61775C7.36561 7.17398 7.17398 7.36561 7.17398 7.61775V11.1276C7.17398 11.3696 7.36561 11.5613 7.61775 11.5613ZM12.8724 11.5613H16.3722C16.6243 11.5613 16.8159 11.3696 16.8159 11.1276V7.61775C16.8159 7.36561 16.6243 7.17398 16.3722 7.17398H12.8724C12.6203 7.17398 12.4286 7.36561 12.4286 7.61775V11.1276C12.4286 11.3696 12.6203 11.5613 12.8724 11.5613ZM8.05144 10.6838V8.05144H10.6838V10.6838H8.05144ZM13.3061 10.6838V8.05144H15.9385V10.6838H13.3061ZM7.61775 16.8159H11.1175C11.3696 16.8159 11.5613 16.6344 11.5613 16.3822V12.8724C11.5613 12.6304 11.3696 12.4387 11.1175 12.4387H7.61775C7.36561 12.4387 7.17398 12.6304 7.17398 12.8724V16.3822C7.17398 16.6344 7.36561 16.8159 7.61775 16.8159ZM12.5598 13.6591H13.6591V12.5598H12.5598V13.6591ZM15.5956 13.6591H16.6848V12.5598H15.5956V13.6591ZM8.05144 15.9486V13.3061H10.6838V15.9486H8.05144ZM14.0726 15.172H15.172V14.0827H14.0726V15.172ZM5.3182 22H7.76904C8.42461 22 8.7877 21.6369 8.7877 20.9914C8.7877 20.3459 8.42461 19.9829 7.76904 19.9829H5.44932C4.52143 19.9829 4.00706 19.5088 4.00706 18.5305V16.2612C4.00706 15.6056 3.65406 15.2426 3.00857 15.2426C2.353 15.2426 2 15.6056 2 16.2612V18.7121C2 20.8704 3.13969 22 5.3182 22ZM16.231 22H18.6818C20.8704 22 22 20.8704 22 18.7121V16.2612C22 15.6056 21.6369 15.2426 20.9914 15.2426C20.3359 15.2426 19.9929 15.6056 19.9929 16.2612V18.5305C19.9929 19.5088 19.4685 19.9829 18.5507 19.9829H16.231C15.5754 19.9829 15.2123 20.3459 15.2123 20.9914C15.2123 21.6369 15.5754 22 16.231 22ZM12.5598 16.6848H13.6591V15.5956H12.5598V16.6848ZM15.5956 16.6848H16.6848V15.5956H15.5956V16.6848Z" fill="#0A0A0A"/>
</svg>
