<svg width="40" height="40" viewBox="0 0 40 40" fill="none" xmlns="http://www.w3.org/2000/svg">
<path d="M20.4235 3.33325C15.5437 3.33325 11.6667 7.22371 11.6667 12.0768C11.6667 15.6731 13.779 18.855 17.1213 20.1919V33.1467C17.1213 33.5344 17.2416 33.882 17.5358 34.1762L19.862 36.4222C20.1561 36.7163 20.7177 36.7832 21.092 36.4088L25.3033 32.1975C25.691 31.8098 25.6777 31.2483 25.3033 30.8739L22.8835 28.4808L26.2793 25.0851C26.6269 24.7241 26.6402 24.1626 26.2525 23.7749L22.9503 20.4593C26.9477 18.7614 29.167 15.6998 29.167 12.0768C29.167 7.23708 25.2766 3.33325 20.4235 3.33325ZM20.4235 11.4618C19.1267 11.4618 18.0705 10.4056 18.0705 9.10878C18.0705 7.79859 19.1133 6.75579 20.4235 6.75579C21.7203 6.75579 22.7765 7.81196 22.7765 9.10878C22.7765 10.4056 21.7203 11.4618 20.4235 11.4618Z" fill="#0A0A0A"/>
</svg>
