<svg width="24" height="24" viewBox="0 0 24 24" fill="none" xmlns="http://www.w3.org/2000/svg">
<path d="M12.2541 2C9.32625 2 7 4.33427 7 7.2461C7 9.4039 8.26741 11.313 10.2728 12.1152V19.8881C10.2728 20.1207 10.345 20.3293 10.5215 20.5057L11.9172 21.8534C12.0937 22.0298 12.4306 22.07 12.6552 21.8453L15.182 19.3186C15.4146 19.0859 15.4066 18.749 15.182 18.5244L13.7301 17.0886L15.7676 15.0511C15.9761 14.8345 15.9841 14.4976 15.7515 14.265L13.7702 12.2756C16.1686 11.2569 17.5002 9.41995 17.5002 7.2461C17.5002 4.3423 15.166 2 12.2541 2ZM12.2541 6.87711C11.476 6.87711 10.8423 6.24341 10.8423 5.46532C10.8423 4.6792 11.468 4.05352 12.2541 4.05352C13.0322 4.05352 13.6659 4.68722 13.6659 5.46532C13.6659 6.24341 13.0322 6.87711 12.2541 6.87711Z" fill="#0A0A0A"/>
</svg>
