<svg width="40" height="40" viewBox="0 0 40 40" fill="none" xmlns="http://www.w3.org/2000/svg">
<path d="M18.5746 36.6666H21.4411C22.381 36.6666 23.0858 36.1027 23.2895 35.1785L24.0727 31.8734C24.6053 31.6854 25.1065 31.4817 25.5764 31.2624L28.4743 33.0482C29.2419 33.5338 30.166 33.4554 30.8083 32.8132L32.829 30.7925C33.4712 30.1503 33.5652 29.1948 33.0483 28.4116L31.2782 25.545C31.4975 25.0751 31.7011 24.5739 31.8578 24.0883L35.1942 23.3051C36.1184 23.1014 36.6667 22.3965 36.6667 21.4567V18.6371C36.6667 17.713 36.1184 16.9924 35.1942 16.7888L31.8891 15.9899C31.7168 15.4416 31.4975 14.9561 31.3095 14.5331L33.0796 11.6039C33.5808 10.8051 33.5182 9.9122 32.8446 9.2543L30.8083 7.23363C30.1504 6.63839 29.3202 6.52874 28.5213 6.96734L25.5764 8.78438C25.1222 8.56508 24.6209 8.36145 24.0884 8.17348L23.2895 4.82135C23.0858 3.89716 22.381 3.33325 21.4411 3.33325H18.5746C17.6191 3.33325 16.9142 3.89716 16.7105 4.82135L15.9273 8.15781C15.3947 8.33012 14.8778 8.53375 14.4079 8.76872L11.4787 6.96734C10.6798 6.52874 9.8653 6.62273 9.19174 7.23363L7.1554 9.2543C6.48184 9.9122 6.41918 10.8051 6.92044 11.6039L8.69049 14.5331C8.50252 14.9561 8.29888 15.4416 8.11091 15.9899L4.80577 16.7888C3.88159 16.9924 3.33334 17.713 3.33334 18.6371V21.4567C3.33334 22.3965 3.88159 23.1014 4.80577 23.3051L8.14224 24.0883C8.29888 24.5739 8.50252 25.0751 8.72181 25.545L6.95176 28.4116C6.43485 29.1948 6.52883 30.1503 7.18673 30.7925L9.19174 32.8132C9.83397 33.4554 10.7582 33.5338 11.5414 33.0482L14.4236 31.2624C14.8935 31.4817 15.3947 31.6854 15.9273 31.8734L16.7105 35.1785C16.9142 36.1027 17.6191 36.6666 18.5746 36.6666ZM20 25.4824C16.9925 25.4824 14.5332 23.0074 14.5332 19.9843C14.5332 16.9924 16.9925 14.5331 20 14.5331C23.0232 14.5331 25.4825 16.9924 25.4825 19.9843C25.4825 23.0074 23.0232 25.4824 20 25.4824Z" fill="#0A0A0A"/>
</svg>
