<svg width="24" height="24" viewBox="0 0 24 24" fill="none" xmlns="http://www.w3.org/2000/svg">
<path d="M13.202 9.37347L12.8987 9.67675L12.722 9.49997C12.1362 8.91419 11.1864 8.91419 10.6006 9.49997L8.36354 11.7371C8.78421 11.6873 9.19977 11.5841 9.59925 11.4275L13.3788 15.2071L14.8433 13.7426C15.4291 13.1568 15.4291 12.2071 14.8433 11.6213L14.6665 11.4445L14.9698 11.1412L13.202 9.37347Z" fill="#0A0A0A"/>
<path fill-rule="evenodd" clip-rule="evenodd" d="M16.2712 12.4427C16.3398 13.1597 16.0995 13.9006 15.5504 14.4497L14.0859 15.9142L18.2784 20.1066C19.0594 20.8877 20.3257 20.8877 21.1068 20.1066C21.8878 19.3256 21.8878 18.0593 21.1068 17.2782L16.2712 12.4427ZM20.3997 19.3995C20.7902 19.009 20.7902 18.3759 20.3997 17.9853C20.0092 17.5948 19.376 17.5948 18.9855 17.9853C18.5949 18.3758 18.5949 19.009 18.9855 19.3995C19.376 19.7901 20.0092 19.7901 20.3997 19.3995Z" fill="#0A0A0A"/>
<path d="M6.9776 11.7088C5.9741 11.5482 5.01014 11.0811 4.23659 10.3075C2.97942 9.05034 2.53166 7.29028 2.89331 5.67489C2.97206 5.32312 3.40197 5.23025 3.65686 5.48514L5.65065 7.47893H8.47908L8.47929 4.65072L6.48529 2.65671C6.2304 2.40182 6.32327 1.97191 6.67503 1.89316C8.29043 1.53152 10.0505 1.97928 11.3077 3.23644C12.6581 4.58687 13.0746 6.5176 12.5571 8.22596C11.6638 7.88379 10.6136 8.07276 9.89354 8.79287L6.9776 11.7088Z" fill="#0A0A0A"/>
<path fill-rule="evenodd" clip-rule="evenodd" d="M20.3091 3.14601C20.153 2.98988 19.913 2.95465 19.7185 3.05933L16.6245 4.72536C16.4666 4.81039 16.3663 4.97349 16.3617 5.15278L16.3338 6.24172L12.8987 9.67675L12.722 9.49997C12.1362 8.91419 11.1864 8.91419 10.6006 9.49997L2.82246 17.2782C2.23667 17.864 2.23667 18.8137 2.82246 19.3995L4.94378 21.5208C5.52956 22.1066 6.47931 22.1066 7.0651 21.5208L14.8433 13.7426C15.4291 13.1568 15.4291 12.2071 14.8433 11.6213L14.6665 11.4445L18.1016 8.00949L19.1905 7.98156C19.3698 7.97696 19.5329 7.87657 19.618 7.71866L21.2838 4.62505C21.3884 4.43064 21.3534 4.19025 21.1973 4.03412L20.3091 3.14601ZM8.02529 14.1967C8.22055 14.0014 8.53713 14.0014 8.73239 14.1967C8.92765 14.3919 8.92765 14.7085 8.73239 14.9038L5.19686 18.4393C5.0016 18.6346 4.68501 18.6346 4.48975 18.4393C4.29449 18.2441 4.29449 17.9275 4.48975 17.7322L8.02529 14.1967ZM10.1466 15.6109C9.95134 15.4156 9.63476 15.4156 9.4395 15.6109L5.90396 19.1464C5.7087 19.3417 5.7087 19.6583 5.90396 19.8535C6.09923 20.0488 6.41581 20.0488 6.61107 19.8535L10.1466 16.318C10.3419 16.1227 10.3419 15.8061 10.1466 15.6109Z" fill="#0A0A0A"/>
</svg>
