<svg width="40" height="40" viewBox="0 0 40 40" fill="none" xmlns="http://www.w3.org/2000/svg">
<path d="M22.0034 15.6225L21.4979 16.128L21.2033 15.8334C20.2269 14.8571 18.644 14.8571 17.6677 15.8334L13.9392 19.5619C14.6403 19.4788 15.3329 19.3069 15.9987 19.046L22.298 25.3452L24.7388 22.9044C25.7151 21.9281 25.7151 20.3452 24.7388 19.3689L24.4442 19.0743L24.9496 18.5688L22.0034 15.6225Z" fill="#0A0A0A"/>
<path fill-rule="evenodd" clip-rule="evenodd" d="M27.1187 20.7378C27.2329 21.9329 26.8324 23.1678 25.9173 24.0829L23.4765 26.5238L30.4639 33.5112C31.7656 34.8129 33.8762 34.8129 35.1779 33.5112C36.4797 32.2094 36.4797 30.0989 35.1779 28.7971L27.1187 20.7378ZM33.9994 32.3326C34.6503 31.6818 34.6503 30.6265 33.9994 29.9756C33.3486 29.3247 32.2933 29.3247 31.6424 29.9756C30.9915 30.6265 30.9915 31.6818 31.6424 32.3326C32.2933 32.9835 33.3486 32.9835 33.9994 32.3326Z" fill="#0A0A0A"/>
<path d="M11.6293 19.5148C9.9568 19.247 8.3502 18.4685 7.06095 17.1793C4.96568 15.084 4.21941 12.1506 4.82215 9.45823C4.9534 8.87195 5.66992 8.71716 6.09474 9.14198L9.41772 12.465H14.1318L14.1321 7.75128L10.8088 4.42794C10.384 4.00312 10.5388 3.2866 11.125 3.15535C13.8174 2.55261 16.7508 3.29887 18.8461 5.39415C21.0968 7.64487 21.7909 10.8627 20.9284 13.71C19.4396 13.1397 17.6894 13.4547 16.4892 14.6549L11.6293 19.5148Z" fill="#0A0A0A"/>
<path fill-rule="evenodd" clip-rule="evenodd" d="M33.8485 5.24343C33.5883 4.98321 33.1882 4.92449 32.8642 5.09896L27.7075 7.87568C27.4443 8.0174 27.2771 8.28923 27.2695 8.58805L27.223 10.403L21.4979 16.128L21.2033 15.8334C20.2269 14.8571 18.644 14.8571 17.6677 15.8334L4.70406 28.797C3.72776 29.7734 3.72775 31.3563 4.70406 32.3326L8.2396 35.8681C9.21591 36.8444 10.7988 36.8444 11.7751 35.8681L24.7388 22.9044C25.7151 21.9281 25.7151 20.3452 24.7388 19.3689L24.4442 19.0743L30.1692 13.3492L31.9841 13.3027C32.2829 13.295 32.5549 13.1277 32.6966 12.8645L35.4729 7.7085C35.6474 7.38448 35.5889 6.98383 35.3287 6.72361L33.8485 5.24343ZM13.3754 23.6612C13.7009 23.3358 14.2285 23.3358 14.554 23.6612C14.8794 23.9866 14.8794 24.5143 14.554 24.8397L8.6614 30.7323C8.33596 31.0577 7.80833 31.0577 7.48289 30.7323C7.15745 30.4068 7.15745 29.8792 7.48289 29.5538L13.3754 23.6612ZM16.911 26.0182C16.5855 25.6928 16.0579 25.6928 15.7325 26.0182L9.83991 31.9108C9.51447 32.2362 9.51447 32.7639 9.83991 33.0893C10.1653 33.4147 10.693 33.4147 11.0184 33.0893L16.911 27.1967C17.2364 26.8713 17.2364 26.3437 16.911 26.0182Z" fill="#0A0A0A"/>
</svg>
