<svg width="24" height="24" viewBox="0 0 24 24" fill="none" xmlns="http://www.w3.org/2000/svg">
<path d="M6 12C6 12.4661 6.18216 12.8657 6.56926 13.232L15.3017 21.556C15.6091 21.8557 15.9734 22 16.4061 22C17.2941 22 18 21.3119 18 20.4573C18 20.0244 17.8178 19.636 17.4991 19.3363L9.7685 11.9889L17.4991 4.66371C17.8292 4.35294 18 3.96448 18 3.54273C18 2.68812 17.2941 2 16.4061 2C15.9734 2 15.6091 2.14428 15.3017 2.44395L6.56926 10.768C6.18216 11.1343 6.01139 11.5228 6 12Z" fill="#0A0A0A"/>
</svg>
