<svg width="16" height="24" viewBox="0 0 16 24" fill="none" xmlns="http://www.w3.org/2000/svg">
<path d="M11.5 11.9967C11.5 11.7229 11.3997 11.4958 11.1858 11.2821L6.03773 6.25376C5.8639 6.08013 5.65664 6 5.40926 6C4.90783 6 4.5 6.39399 4.5 6.89482C4.5 7.1419 4.60697 7.36895 4.78749 7.54925L9.36055 11.99L4.78749 16.4441C4.60697 16.6244 4.5 16.8447 4.5 17.0985C4.5 17.5993 4.90783 18 5.40926 18C5.65664 18 5.8639 17.9132 6.03773 17.7396L11.1858 12.7112C11.4064 12.4975 11.5 12.2705 11.5 11.9967Z" fill="#0A0A0A"/>
</svg>
