<svg width="16" height="8" viewBox="0 0 16 8" fill="none" xmlns="http://www.w3.org/2000/svg">
<path d="M1.49467 4.47581C1.1963 4.59677 1 4.87097 1 5.16129C1 5.6371 1.33763 6 1.79305 6C2.03646 6 2.34268 5.8629 2.53898 5.78226L8.00393 3.58871L13.461 5.78226C13.6573 5.8629 13.9714 6 14.207 6C14.6624 6 15 5.6371 15 5.16129C15 4.87097 14.8037 4.59677 14.5053 4.47581L9.15031 2.32258C8.78912 2.17742 8.34941 2 8.00393 2C7.65059 2 7.21873 2.17742 6.85754 2.32258L1.49467 4.47581Z" fill="#0A0A0A"/>
</svg>
