<svg width="24" height="24" viewBox="0 0 24 24" fill="none" xmlns="http://www.w3.org/2000/svg">
<path d="M8.29399 21.311C7.01035 20.8652 5.89234 20.2168 4.96066 19.3658C4.02899 18.5147 3.30435 17.461 2.78675 16.2249C2.26915 14.9889 2 13.5704 2 11.9899V11.9696C2 10.4904 2.24845 9.13273 2.74534 7.91692C3.24224 6.70111 3.94617 5.64742 4.85714 4.75583C5.76811 3.86424 6.84472 3.19554 8.08696 2.70922C9.32919 2.2229 10.7164 2 12.207 2C14.1325 2 15.8302 2.36474 17.3002 3.11449C18.7702 3.86424 19.9296 4.91793 20.7578 6.27558C21.5859 7.63323 22 9.25431 22 11.0983V11.1185C22 12.4154 21.8137 13.4894 21.4617 14.381C21.1097 15.2725 20.6335 15.9615 19.9917 16.4276C19.3499 16.8936 18.646 17.1165 17.8592 17.1165C17.1139 17.1165 16.472 16.9341 15.9544 16.5491C15.4369 16.1641 15.0435 15.6981 14.8157 15.1307L14.7329 14.9483H14.6294C14.3395 15.6575 13.8841 16.2047 13.3043 16.5491C12.7246 16.8936 12.0207 17.0963 11.2547 17.0963C10.4265 17.0963 9.70186 16.8936 9.08074 16.4681C8.45963 16.0426 7.94203 15.4347 7.59006 14.6646C7.2381 13.8946 7.07246 13.0233 7.07246 11.9899C7.07246 11.0172 7.2588 10.1662 7.61077 9.41641C7.96273 8.66667 8.45963 8.07903 9.10145 7.67376C11.1097 6.35664 13.9876 6.70111 15.3126 8.44377C16.1822 9.57852 16.3892 10.9362 16.4099 12.4357C16.4306 13.2867 16.6584 14.2391 16.9275 14.6241C17.1967 15.0091 17.5487 15.1915 17.9834 15.1915C18.5631 15.1915 19.0186 14.847 19.3706 14.1581C19.7226 13.4691 19.8882 12.4762 19.8882 11.1793C19.8882 9.65958 19.5569 8.36271 18.9151 7.26849C18.2733 6.17426 17.3623 5.30294 16.2029 4.7153C15.0435 4.12766 13.6563 3.82371 12.1035 3.82371C10.9234 3.82371 9.86749 4.02634 8.89441 4.41135C7.92132 4.79635 7.07246 5.36373 6.34783 6.09321C5.62319 6.8227 5.08489 7.67376 4.71221 8.66667C4.33954 9.65957 4.13251 10.7741 4.13251 11.9899V12.0101C4.13251 13.7528 4.50518 15.232 5.22981 16.4478C5.95445 17.6636 6.96894 18.5755 8.23188 19.2036C9.49482 19.8318 10.9855 20.156 12.6418 20.156C13.4286 20.156 14.1739 20.0952 14.8986 19.9939C15.1912 19.953 15.2439 19.9446 15.7 19.8439C16.2601 19.7203 16.6978 19.9919 16.7205 20.6C16.741 21.15 16.4811 21.4854 15.9 21.6277C14.8861 21.8759 13.7653 22 12.5176 22C10.9855 21.9797 9.57764 21.7568 8.29399 21.311ZM13.5114 14.2796C13.9462 13.7325 14.1532 12.9828 14.1532 12.0507V12.0304C14.1532 11.0983 13.9462 10.3688 13.5114 9.84195C13.0766 9.3151 12.5176 9.03141 11.8137 9.03141C11.3375 9.03141 10.9234 9.15299 10.5921 9.39615C10.2609 9.63931 9.97102 9.94326 9.78468 10.4093C9.59834 10.8754 9.51553 11.4022 9.51553 12.0304V12.0507C9.51553 12.6991 9.59834 13.2462 9.78468 13.692C9.97102 14.1378 10.2195 14.5025 10.5714 14.7457C10.9234 14.9889 11.3168 15.0902 11.7723 15.0902C12.4969 15.0902 13.0766 14.8267 13.5114 14.2796Z" fill="#0A0A0A"/>
</svg>
