<svg width="24" height="24" viewBox="0 0 24 24" fill="none" xmlns="http://www.w3.org/2000/svg">
<path d="M20.8811 6.68367C20.8811 6.71858 20.8797 6.75357 20.8784 6.78854C20.8756 6.8634 20.8728 6.93814 20.8829 7.01157C21.0798 8.42996 20.32 9.26375 19.1793 9.87551C17.6216 10.7102 15.931 11.0653 14.2014 11.2442C11.6088 11.5122 9.03303 11.3923 6.53338 10.6016C5.70294 10.3383 4.9041 9.93079 4.14891 9.48953C3.36771 9.03329 2.92648 8.32128 3.01008 7.34696C3.04724 6.9132 3.04724 6.47101 3.01008 6.03725C2.92648 5.04419 3.40951 4.37715 4.17213 3.85065C5.25057 3.10492 6.46742 2.70676 7.73165 2.44819C10.9837 1.7849 14.2218 1.82706 17.4135 2.7817C18.1603 3.00467 18.8765 3.36817 19.562 3.74947C20.4826 4.26192 21.0139 5.04232 20.882 6.16841C20.8686 6.28444 20.8723 6.40222 20.8759 6.51996C20.8775 6.57428 20.8792 6.62862 20.8792 6.68274C20.8801 6.68367 20.8811 6.68367 20.8811 6.68367Z" fill="#0A0A0A"/>
<path d="M20.8534 17.0068C20.8651 17.5873 20.8763 18.1481 20.8254 18.7033C20.7669 19.3469 20.2718 19.7638 19.7711 20.1217C18.7168 20.8749 17.5139 21.2759 16.2664 21.5317C12.9568 22.2109 9.65547 22.1978 6.41177 21.185C5.55626 20.918 4.74534 20.4543 3.97343 19.9812C3.28791 19.5615 2.95722 18.8823 3.00831 18.0325C3.03243 17.6312 3.02662 17.2276 3.02053 16.8039C3.0177 16.6075 3.01481 16.4069 3.01481 16.2001C5.78291 17.9342 8.81575 18.3895 11.9359 18.3904C15.043 18.3904 18.0675 17.9529 20.8431 16.2263C20.8431 16.4911 20.8483 16.7509 20.8534 17.0068Z" fill="#0A0A0A"/>
<path d="M20.79 11.039C16.8645 13.7971 7.37215 13.9779 3.01657 10.9838C3.01657 11.1669 3.01975 11.3439 3.02284 11.5164C3.0295 11.8883 3.03579 12.2395 3.00914 12.5876C2.93576 13.5423 3.36491 14.2431 4.12381 14.6993C4.83442 15.1265 5.59054 15.5172 6.37545 15.7701C9.33676 16.7257 12.3687 16.7791 15.4164 16.3004C16.8413 16.0765 18.2318 15.698 19.4766 14.9195C20.83 14.0726 21.3213 12.5998 20.79 11.039Z" fill="#0A0A0A"/>
</svg>
