<svg width="24" height="24" viewBox="0 0 24 24" fill="none" xmlns="http://www.w3.org/2000/svg">
<path d="M8.47835 2.8099L2.95682 2.11971C2.47152 2.05905 2.05893 2.47164 2.11959 2.95695L2.80978 8.47847C2.88719 9.09776 3.64301 9.35709 4.08432 8.91577L5.90724 7.09285C9.62598 10.5131 11 13.7171 11 16.0001V21C11 21.0672 11.0066 21.133 11.0193 21.1965C11.0845 21.5243 11.3101 21.7943 11.6107 21.9215C11.7304 21.9721 11.8619 22.0001 12 22.0001C12.5523 22.0001 13 21.5524 13 21.0001V16.0001C13 12.8628 14.3382 10.3505 18.0749 7.075L19.9157 8.91577C20.357 9.35709 21.1128 9.09776 21.1902 8.47847L21.8804 2.95695C21.941 2.47164 21.5285 2.05905 21.0431 2.11971L15.5216 2.8099C14.9023 2.88731 14.643 3.64313 15.0843 4.08444L16.6579 5.65798C14.3511 7.69467 12.7876 9.57784 11.8988 11.5945C10.9846 9.68746 9.48235 7.67748 7.32228 5.67782L8.91565 4.08444C9.35697 3.64313 9.09764 2.88731 8.47835 2.8099Z" fill="#0A0A0A"/>
</svg>
