<svg width="24" height="24" viewBox="0 0 24 24" fill="none" xmlns="http://www.w3.org/2000/svg">
<path d="M11.97 2C8.04554 2 4.46255 4.37277 2.83283 8.04862C2.28161 9.29984 2 10.7326 2 12.3144C2 14.0713 2.2876 15.7699 2.88676 17.5008C3.0006 17.8185 3.27621 18.0259 3.59377 18.0259C3.68364 18.0259 3.76753 18.0065 3.8574 17.9741C4.24685 17.812 4.43859 17.3517 4.29479 16.9303C3.58778 14.8817 3.50989 13.3128 3.50989 12.3144C3.50989 10.9724 3.74356 9.7731 4.19892 8.74878C5.57699 5.63047 8.63271 3.61426 11.982 3.61426C16.6854 3.61426 20.5141 7.51702 20.5141 12.3144C20.5141 13.6175 19.4655 14.6742 18.1714 14.6742C16.8772 14.6742 15.8286 13.6175 15.8286 12.3144C15.8286 10.1167 14.1031 8.33387 11.988 8.33387C9.87298 8.33387 8.14739 10.1167 8.14739 12.3144C8.14739 14.9206 9.08208 17.3647 10.7837 19.1994C12.1019 20.6191 13.3661 21.3906 15.2894 21.9611C15.3493 21.987 15.4152 22 15.4991 22C15.8346 22 16.1282 21.7536 16.2181 21.41C16.3319 20.9822 16.0923 20.5348 15.6908 20.4117C14.0312 19.919 12.9467 19.2642 11.8322 18.0583C10.4122 16.5284 9.63331 14.4927 9.63331 12.3274C9.63331 11.0243 10.6818 9.96758 11.976 9.96758C13.2702 9.96758 14.3188 11.0243 14.3188 12.3274C14.3188 14.5251 16.0443 16.3079 18.1594 16.3079C20.2744 16.3079 22 14.5251 22 12.3274C22 6.63533 17.5003 2 11.97 2Z" fill="#0A0A0A"/>
<path d="M7.66211 17.2285C6.9491 15.8476 6.57163 14.1426 6.57163 12.3079C6.57163 9.26093 9.01022 6.77794 12.012 6.77794C15.0138 6.77794 17.4524 9.26093 17.4524 12.3079C17.4524 12.7553 17.7879 13.1183 18.2014 13.1183C18.6148 13.1183 18.9503 12.7553 18.9503 12.3079C18.9503 8.36627 15.8407 5.1572 12.012 5.1572C8.18338 5.1572 5.07373 8.36627 5.07373 12.3079C5.07373 14.4279 5.51711 16.3987 6.35594 18.0194C7.1648 19.5883 7.73401 20.3209 8.78853 21.4749C8.93233 21.6305 9.12406 21.7147 9.32178 21.7147C9.53149 21.7147 9.72322 21.624 9.83706 21.4749C9.98086 21.3258 10.0647 21.1248 10.0647 20.9108C10.0647 20.6904 9.98685 20.483 9.84904 20.3274C8.94431 19.3484 8.43502 18.7261 7.66211 17.2285Z" fill="#0A0A0A"/>
<path d="M19.136 17.5786C19.1779 17.5721 19.2258 17.5656 19.2678 17.5656C19.6273 17.5656 19.9388 17.8444 20.0048 18.2398C20.0767 18.6742 19.807 19.0956 19.3996 19.1799C18.7465 19.303 18.1833 19.3225 17.9077 19.3225C16.4517 19.3225 15.1755 18.927 14.109 18.1491C12.2876 16.8071 11.1971 14.6288 11.1971 12.3209C11.1971 11.8735 11.5326 11.5105 11.946 11.5105C12.3595 11.5105 12.695 11.8735 12.695 12.3209C12.695 14.0842 13.5398 15.7633 14.9538 16.8006C15.7747 17.41 16.7393 17.7017 17.9077 17.7017C18.1953 17.7017 18.6626 17.6693 19.136 17.5786Z" fill="#0A0A0A"/>
</svg>
