<svg width="24" height="24" viewBox="0 0 24 24" fill="none" xmlns="http://www.w3.org/2000/svg">
<path fill-rule="evenodd" clip-rule="evenodd" d="M22 12C22 17.5228 17.5228 22 12 22C6.47715 22 2 17.5228 2 12C2 6.47715 6.47715 2 12 2C17.5228 2 22 6.47715 22 12ZM15.15 11.4457C15.7987 11.601 16.2837 11.8865 16.6054 12.3023C16.927 12.7182 17.0524 13.3114 16.9802 14.0823C16.9414 14.4759 16.852 14.8224 16.7106 15.1218C16.5692 15.4212 16.3919 15.6679 16.1756 15.8619C15.9593 16.0561 15.6933 16.2182 15.3717 16.3485C15.0502 16.4788 14.719 16.5744 14.367 16.6353C14.0149 16.6963 13.6971 16.7378 13.1682 16.76V18.8484H11.9156V16.7933C11.4424 16.7933 11.0806 16.7905 10.9136 16.785V18.8483H9.53569V16.7599C9.53569 16.7599 9.30312 16.7351 9.10354 16.7323C8.99196 16.7308 8.90044 16.7224 8.82301 16.7152C8.76194 16.7096 8.70964 16.7048 8.66318 16.7048H7L7.25776 15.1599H8.18093C8.45817 15.1599 8.64509 15.0884 8.64509 14.8056V11.4541V11.3604V9.06731C8.64509 8.69042 8.3446 8.45159 7.92317 8.45159H7.04454V7.13804L8.7684 7.14639C9.12316 7.14639 9.3549 7.14361 9.53583 7.13804V5H10.9137V7.09656C11.3173 7.08543 11.6792 7.07986 11.9158 7.07986V5H13.1684V7.1379C13.5859 7.17673 13.9831 7.23908 14.3213 7.32495C14.6595 7.41082 14.9614 7.53567 15.2498 7.6992C15.5382 7.86287 15.7668 8.07901 15.9359 8.3479C16.105 8.61679 16.2062 8.93426 16.2395 9.30015C16.3393 10.3092 15.976 11.0243 15.15 11.4457ZM11.2232 8.58924C11.043 8.59202 10.9138 8.59341 10.9138 8.59341H10.914V11.1463C10.914 11.1463 11.0182 11.1477 11.1817 11.1505C11.3453 11.1533 11.4551 11.1533 11.5493 11.1505C11.6435 11.1477 11.7822 11.1422 11.9652 11.1338C12.1481 11.1255 12.3005 11.1103 12.4225 11.088C12.5444 11.0659 12.6872 11.0354 12.8508 10.9966C13.0143 10.9578 13.1488 10.9065 13.2541 10.8428C13.3595 10.779 13.462 10.7042 13.5618 10.6183C13.6616 10.5324 13.7365 10.4257 13.7865 10.2982C13.8363 10.1707 13.8613 10.0294 13.8613 9.87412C13.8613 9.6911 13.8267 9.52896 13.7575 9.38756C13.6883 9.24615 13.604 9.12966 13.5042 9.03822C13.4044 8.94678 13.2719 8.86912 13.1056 8.80538C12.9393 8.74164 12.788 8.69585 12.6494 8.66815C12.5108 8.64045 12.3426 8.61833 12.1403 8.60162C11.9379 8.58506 11.7819 8.5781 11.6627 8.58089C11.5436 8.58367 11.4035 8.58645 11.2232 8.58924ZM14.1688 14.5893C14.252 14.4951 14.3199 14.3842 14.3725 14.2567C14.4252 14.1292 14.4516 13.9878 14.4516 13.8323C14.4516 13.6327 14.4103 13.4554 14.327 13.3001C14.2438 13.1448 14.1417 13.0173 14.0196 12.9175C13.8977 12.8177 13.7389 12.7332 13.5421 12.6639C13.3453 12.5948 13.1649 12.5434 12.9986 12.5101C12.8323 12.4769 12.6296 12.452 12.3856 12.4353C12.1417 12.4187 11.9552 12.4103 11.8165 12.4103C11.6779 12.4103 11.5087 12.4131 11.2898 12.4187C11.0707 12.4243 10.9138 12.427 10.9138 12.427V15.2381C10.9138 15.2381 11.0416 15.2395 11.2023 15.2423C11.3631 15.2451 11.4771 15.2465 11.5824 15.2465C11.6878 15.2465 11.8346 15.2423 12.0232 15.234C12.2118 15.2256 12.3739 15.2146 12.5098 15.2007C12.6456 15.1868 12.8036 15.1633 12.9838 15.13C13.1641 15.0967 13.3179 15.0578 13.4453 15.0135C13.5728 14.9691 13.7045 14.9109 13.8403 14.8388C13.9762 14.7668 14.0856 14.6835 14.1688 14.5893Z" fill="#0A0A0A"/>
</svg>
