<svg width="24" height="24" viewBox="0 0 24 24" fill="none" xmlns="http://www.w3.org/2000/svg">
<path fill-rule="evenodd" clip-rule="evenodd" d="M22 12C22 17.5228 17.5228 22 12 22C6.47715 22 2 17.5228 2 12C2 6.47715 6.47715 2 12 2C17.5228 2 22 6.47715 22 12ZM17.0747 10.4575V10.0745C17.063 10.0624 17.0615 10.0471 17.06 10.0312C17.0449 9.8365 16.9907 9.65209 16.9108 9.47491C16.817 9.26686 16.6866 9.08326 16.5296 8.9182C16.3658 8.74598 16.1808 8.59969 15.9818 8.47061C15.8079 8.35787 15.6266 8.25812 15.4394 8.16909C15.2337 8.0712 15.0234 7.98416 14.8096 7.90577C14.7816 7.89551 14.7535 7.88556 14.7254 7.87562C14.7031 7.86774 14.6808 7.85987 14.6586 7.85184C14.6499 7.84867 14.6415 7.84482 14.6335 7.84122C14.6298 7.83952 14.6262 7.83788 14.6228 7.8364C14.6126 7.81815 14.6169 7.80214 14.6212 7.78628C14.6219 7.7839 14.6225 7.78152 14.6231 7.77914C14.6353 7.73058 14.6473 7.68201 14.6594 7.63345C14.6743 7.5733 14.6892 7.51314 14.7043 7.45301C14.7234 7.37645 14.7426 7.29989 14.7617 7.22333C14.8717 6.78336 14.9818 6.34339 15.0912 5.9033C15.0922 5.89909 15.0936 5.89486 15.095 5.89056C15.1 5.87519 15.1053 5.85889 15.0974 5.8388C15.093 5.83741 15.0885 5.83585 15.0838 5.83424C15.0735 5.83072 15.0625 5.82696 15.0513 5.82417C14.7722 5.7545 14.493 5.68505 14.2138 5.6156C14.1893 5.6095 14.1648 5.60353 14.1402 5.59756C14.0794 5.58277 14.0185 5.56799 13.9583 5.55125C13.9211 5.5409 13.9074 5.54689 13.898 5.58907C13.8879 5.63461 13.8762 5.67983 13.8645 5.72505C13.859 5.74661 13.8534 5.76816 13.848 5.78974L13.48 7.26454L13.4438 7.41001C13.4431 7.41297 13.4423 7.41593 13.4416 7.41888C13.439 7.42931 13.4364 7.43974 13.4332 7.44998C13.425 7.47606 13.4171 7.48101 13.3919 7.47621C13.3867 7.4752 13.3815 7.47383 13.3763 7.47247C13.3731 7.47165 13.37 7.47083 13.3668 7.47008C13.3037 7.45521 13.2405 7.44034 13.1774 7.42546C12.9487 7.37161 12.72 7.31776 12.4913 7.26409C12.4891 7.26358 12.4869 7.26309 12.4847 7.2626C12.4701 7.25937 12.4556 7.25615 12.4426 7.24569C12.4377 7.22823 12.442 7.21116 12.4463 7.19399C12.4466 7.19285 12.4469 7.19171 12.4472 7.19058L12.6338 6.44369C12.7248 6.07937 12.8156 5.71497 12.9063 5.35058C12.9206 5.29354 12.9203 5.2931 12.8615 5.27839C12.5003 5.18811 12.1391 5.09797 11.7778 5.00791C11.7677 5.00539 11.7574 5.00374 11.7477 5.00219C11.7432 5.00146 11.7388 5.00076 11.7347 5C11.7202 5.00773 11.7175 5.0195 11.7149 5.03125C11.7145 5.03298 11.7141 5.03471 11.7137 5.03642C11.6985 5.09742 11.6831 5.15837 11.6678 5.21932C11.6525 5.28028 11.6371 5.34123 11.6219 5.40222L11.2402 6.93191C11.2373 6.94362 11.2337 6.95515 11.2303 6.96577C11.229 6.97009 11.2277 6.97426 11.2265 6.97824C11.2064 6.98734 11.1901 6.9835 11.1739 6.97971L11.172 6.97927C11.1018 6.96279 11.0314 6.94689 10.961 6.931C10.801 6.8949 10.6411 6.85881 10.4831 6.81577C10.283 6.76125 10.0819 6.71142 9.88068 6.66159C9.75062 6.62937 9.62055 6.59715 9.49081 6.56367C9.33057 6.52235 9.16995 6.48252 9.00933 6.4427C8.9474 6.42735 8.88548 6.41199 8.82357 6.39655C8.81417 6.3942 8.80458 6.3927 8.79575 6.39132C8.79209 6.39074 8.78856 6.39019 8.78522 6.3896C8.76998 6.39641 8.76726 6.40829 8.76458 6.42004C8.76421 6.42167 8.76383 6.42331 8.76343 6.42492C8.74628 6.49348 8.72912 6.56202 8.71196 6.63057C8.67765 6.76762 8.64334 6.90466 8.60916 7.04178C8.56246 7.229 8.51606 7.41622 8.46967 7.60351C8.46658 7.61611 8.46407 7.62888 8.46151 7.64191C8.46039 7.64761 8.45926 7.65335 8.45807 7.65915C8.483 7.67291 8.50855 7.67804 8.53353 7.68307C8.54223 7.68481 8.55085 7.68655 8.55936 7.68863C8.64262 7.70893 8.72597 7.72897 8.80931 7.749C8.95375 7.78372 9.0982 7.81845 9.24227 7.85457C9.33071 7.87674 9.41811 7.90407 9.50226 7.94005C9.59211 7.97847 9.67227 8.03123 9.73987 8.10245C9.82063 8.18764 9.86902 8.28893 9.89097 8.4033C9.8968 8.43367 9.90035 8.4647 9.90227 8.49559C9.90604 8.5561 9.89902 8.61506 9.88402 8.67453C9.76408 9.15058 9.64529 9.62693 9.5265 10.1033C9.50106 10.2053 9.47563 10.3073 9.45018 10.4093C9.42792 10.4984 9.40592 10.5876 9.38392 10.6767C9.37292 10.7213 9.36191 10.7659 9.35088 10.8105C9.35031 10.8128 9.34955 10.815 9.34878 10.8172C9.34786 10.8199 9.34694 10.8226 9.34637 10.8254C9.33935 10.8593 9.34726 10.8686 9.37777 10.879C9.38179 10.8804 9.38602 10.8814 9.39033 10.8826C9.40587 10.8865 9.42243 10.8908 9.434 10.9093C9.43095 10.9098 9.4282 10.9105 9.42569 10.9111C9.4209 10.9122 9.41694 10.9132 9.41331 10.9125C9.40299 10.9104 9.39275 10.9079 9.3825 10.9054C9.37265 10.903 9.3628 10.9006 9.35287 10.8986C9.33965 10.8959 9.32871 10.9024 9.32487 10.9156C9.31775 10.9401 9.31163 10.9647 9.30553 10.9894L9.30522 10.9906C9.25955 11.1742 9.2139 11.3577 9.16826 11.5413C9.08039 11.8946 8.99253 12.2479 8.90447 12.6012C8.88088 12.6959 8.85731 12.7905 8.83375 12.8852C8.73827 13.2687 8.64279 13.6522 8.54554 14.0352C8.51141 14.1697 8.43295 14.2748 8.3083 14.3407C8.22112 14.3867 8.12751 14.3938 8.03139 14.3792C7.90883 14.3605 7.78908 14.3297 7.66933 14.2988C7.65892 14.2961 7.64851 14.2934 7.6381 14.2907C7.53039 14.2631 7.42284 14.2349 7.31527 14.2068C7.25446 14.1909 7.19365 14.175 7.13281 14.1591C7.12524 14.1572 7.11748 14.156 7.10913 14.1546C7.10477 14.1539 7.10024 14.1532 7.0955 14.1523C7.09339 14.1559 7.09121 14.1592 7.08906 14.1625C7.08455 14.1695 7.08021 14.1762 7.07711 14.1834C7.00792 14.3428 6.93886 14.5022 6.8698 14.6617C6.8354 14.7411 6.80099 14.8205 6.76657 14.9L6.51544 15.4789C6.51193 15.487 6.5089 15.4953 6.50555 15.5046C6.50382 15.5093 6.50201 15.5143 6.5 15.5196C6.50546 15.5215 6.5106 15.5235 6.51555 15.5253C6.52595 15.5292 6.5355 15.5328 6.54536 15.5352C6.69841 15.5734 6.85148 15.6114 7.00456 15.6494C7.29777 15.7222 7.59099 15.795 7.88399 15.8687C8.1155 15.927 8.34661 15.9867 8.57773 16.0463C8.66179 16.068 8.74584 16.0897 8.82992 16.1114C8.8388 16.1137 8.84775 16.1157 8.85665 16.1178C8.88259 16.1237 8.90807 16.1296 8.92974 16.1406C8.94028 16.1554 8.93707 16.1673 8.93392 16.179C8.93347 16.1806 8.93303 16.1823 8.93262 16.1839C8.92124 16.2299 8.90989 16.2759 8.89854 16.322C8.8802 16.3963 8.86186 16.4707 8.84337 16.5451L8.52596 17.819C8.50055 17.921 8.47543 18.023 8.45031 18.1251C8.44864 18.132 8.44756 18.1389 8.44655 18.1455C8.44613 18.1482 8.44572 18.1508 8.44528 18.1534C8.45801 18.1664 8.47267 18.1697 8.48671 18.1729C8.48931 18.1734 8.49188 18.174 8.49442 18.1746L8.56378 18.192C8.90003 18.2759 9.2363 18.3598 9.57282 18.4428C9.5803 18.4447 9.58688 18.4465 9.59269 18.448C9.63538 18.4596 9.63714 18.4601 9.65424 18.3916C9.69848 18.214 9.74256 18.0364 9.78665 17.8588C9.81186 17.7573 9.83706 17.6558 9.8623 17.5542C9.94675 17.2147 10.0313 16.8752 10.116 16.5358C10.1198 16.5209 10.1246 16.5062 10.129 16.4927C10.131 16.4868 10.1329 16.481 10.1346 16.4756C10.1536 16.4647 10.1687 16.469 10.1836 16.4732C10.1853 16.4736 10.187 16.4741 10.1887 16.4746C10.2231 16.4837 10.2574 16.4928 10.2917 16.502C10.3922 16.5287 10.4927 16.5554 10.5935 16.5815C10.6822 16.6045 10.7711 16.6269 10.8599 16.6494C10.9214 16.665 10.9829 16.6805 11.0443 16.6962C11.0601 16.7003 11.0758 16.7052 11.0908 16.7099C11.0976 16.712 11.1043 16.7141 11.1109 16.7161C11.1183 16.7382 11.1136 16.756 11.1089 16.7736C11.1083 16.776 11.1077 16.7783 11.1071 16.7807C11.0755 16.9073 11.044 17.0339 11.0125 17.1605C10.9761 17.3065 10.9398 17.4525 10.9033 17.5985C10.8597 17.7732 10.8159 17.948 10.7721 18.1227C10.7284 18.2974 10.6846 18.4721 10.641 18.6468C10.6381 18.6584 10.636 18.6702 10.634 18.6811C10.6332 18.6857 10.6324 18.6902 10.6316 18.6944C10.6395 18.7093 10.6512 18.7119 10.6628 18.7144C10.6647 18.7148 10.6666 18.7152 10.6684 18.7157L11.0344 18.8073C11.2767 18.8678 11.5189 18.9283 11.7613 18.9887C11.7737 18.9918 11.7862 18.9943 11.7983 18.9967C11.8039 18.9978 11.8093 18.9989 11.8146 19C11.8305 18.9869 11.8335 18.9704 11.8363 18.9547C11.8371 18.9501 11.8379 18.9455 11.8391 18.9412C11.8648 18.8417 11.8896 18.742 11.9143 18.6424C11.9207 18.6166 11.9271 18.5909 11.9336 18.5651C11.9553 18.4778 11.9771 18.3905 11.9988 18.3032C12.1024 17.8874 12.206 17.4715 12.3101 17.0557C12.3112 17.0514 12.3121 17.0468 12.313 17.0423C12.3159 17.0266 12.3189 17.0105 12.3324 16.998C12.3501 16.9923 12.3683 16.9955 12.3865 16.9986L12.3878 16.9988C12.4248 17.0051 12.4617 17.0115 12.4987 17.018C12.5788 17.0319 12.6588 17.0458 12.739 17.0587C12.8478 17.0761 12.9568 17.0928 13.066 17.1072C13.1199 17.1143 13.1741 17.1192 13.2284 17.1242C13.2513 17.1263 13.2743 17.1284 13.2972 17.1307L13.2973 17.1307C13.3556 17.1364 13.4138 17.1422 13.4721 17.1477C13.4816 17.1486 13.4911 17.1492 13.5006 17.1497C13.5049 17.15 13.5091 17.1502 13.5133 17.1505L13.6527 17.1593C13.663 17.16 13.6734 17.1607 13.6837 17.1607C13.7266 17.1607 13.7695 17.1608 13.8124 17.161C13.9248 17.1613 14.0373 17.1617 14.1496 17.1599C14.1998 17.1591 14.2499 17.1541 14.3 17.149C14.3185 17.1471 14.3371 17.1453 14.3556 17.1436C14.3951 17.1401 14.4344 17.1356 14.4737 17.131C14.8192 17.0901 15.1496 16.999 15.4568 16.8323C15.6152 16.7463 15.7605 16.6419 15.893 16.5194C16.1004 16.3276 16.2649 16.1033 16.3969 15.8545C16.5531 15.5603 16.6628 15.2489 16.7395 14.9254C16.7661 14.8129 16.7856 14.6992 16.7998 14.5846C16.8144 14.468 16.8154 14.3507 16.8133 14.2334C16.809 13.9964 16.7625 13.7682 16.6694 13.5498C16.5978 13.3819 16.5022 13.2289 16.3845 13.0896C16.1998 12.8711 15.9782 12.697 15.7345 12.5496C15.6939 12.525 15.6525 12.5016 15.6112 12.4783C15.5864 12.4643 15.5617 12.4503 15.5372 12.4361C15.535 12.4348 15.5327 12.4337 15.5304 12.4326C15.5205 12.4277 15.5101 12.4226 15.5088 12.4072C15.5189 12.3967 15.5325 12.3935 15.5464 12.3903C15.5491 12.3897 15.5517 12.389 15.5544 12.3884C15.6597 12.3616 15.7632 12.3287 15.8639 12.2877C16.1523 12.1704 16.3986 11.9955 16.5952 11.7528C16.7 11.6234 16.784 11.481 16.8518 11.3291C16.9364 11.1392 16.9932 10.9408 17.0297 10.7363C17.0397 10.6804 17.0487 10.6243 17.0571 10.5681C17.059 10.5552 17.0593 10.5421 17.0596 10.5289C17.0597 10.5231 17.0598 10.5172 17.0601 10.5114L17.0602 10.5107C17.061 10.4919 17.0619 10.4731 17.0747 10.4575ZM10.573 15.0272C10.5595 15.024 10.5455 15.0206 10.5309 15.0031C10.5341 14.9894 10.5373 14.9755 10.5405 14.9615C10.5479 14.9293 10.5553 14.8966 10.5635 14.8641C10.6421 14.5481 10.7208 14.2321 10.7997 13.9161L11.1791 12.3969C11.1799 12.394 11.1806 12.3911 11.1813 12.3882C11.1843 12.3761 11.1873 12.3639 11.1912 12.352C11.1981 12.3306 11.2082 12.3243 11.2303 12.3292C11.254 12.3344 11.2776 12.34 11.3012 12.3457C11.3178 12.3497 11.3344 12.3537 11.351 12.3575C11.4098 12.371 11.4687 12.3843 11.5275 12.3976C11.6366 12.4222 11.7457 12.4468 11.8545 12.4725C12.1597 12.5446 12.4624 12.6258 12.7589 12.7287C12.979 12.805 13.1942 12.893 13.4008 13.0012C13.5833 13.0967 13.7555 13.2075 13.9092 13.3455C14.0322 13.4558 14.1364 13.5814 14.2121 13.729C14.2772 13.8561 14.3154 13.9906 14.3258 14.1339C14.3401 14.3307 14.3041 14.5183 14.2307 14.6994C14.1413 14.9199 13.9897 15.0869 13.7843 15.2059C13.6486 15.2844 13.5024 15.3348 13.3499 15.3674C13.1741 15.405 12.9961 15.4233 12.816 15.4206C12.7925 15.4203 12.7689 15.4204 12.7454 15.4206C12.7068 15.4208 12.6682 15.421 12.6298 15.4192C12.5472 15.4152 12.4646 15.4091 12.3823 15.4011C12.283 15.3913 12.1835 15.3808 12.0846 15.3666C11.9773 15.3512 11.8703 15.3328 11.7637 15.3127C11.5233 15.2673 11.2849 15.2122 11.0481 15.1511C10.954 15.1268 10.8599 15.1022 10.7659 15.0776C10.7033 15.0612 10.6407 15.0448 10.578 15.0285C10.5763 15.028 10.5747 15.0276 10.573 15.0272ZM11.5198 11.1159C11.5147 11.1141 11.5093 11.112 11.5033 11.1099C11.5051 11.1009 11.5067 11.0927 11.5082 11.0851C11.5109 11.0716 11.5132 11.0597 11.5162 11.048L12.0083 9.07136L12.0193 9.02682C12.0444 8.92632 12.0694 8.82579 12.0949 8.72536L12.0958 8.72173C12.1069 8.67771 12.1092 8.66854 12.1651 8.68185C12.2616 8.70478 12.3582 8.72678 12.4549 8.74879C12.5681 8.77457 12.6814 8.80035 12.7943 8.82762C13.0491 8.88916 13.3003 8.9632 13.5447 9.05865C13.738 9.13409 13.9251 9.22208 14.0992 9.33564C14.2623 9.44196 14.409 9.56638 14.5216 9.72737C14.6132 9.85815 14.6716 10.0021 14.6954 10.1601C14.7117 10.2685 14.7069 10.3762 14.6896 10.4844C14.673 10.5889 14.6456 10.6898 14.6047 10.7872C14.521 10.9862 14.3862 11.1405 14.2003 11.2506C14.0726 11.3263 13.9344 11.3731 13.79 11.4027C13.6562 11.43 13.5209 11.4452 13.3843 11.4451C13.3693 11.4451 13.3543 11.4452 13.3393 11.4453C13.2973 11.4455 13.2554 11.4457 13.2134 11.4442C13.1014 11.4404 12.9899 11.4298 12.8785 11.4163C12.7262 11.3978 12.5752 11.3719 12.4247 11.3419C12.2015 11.2973 11.9812 11.2411 11.7613 11.183C11.6897 11.164 11.6181 11.1446 11.5466 11.1251C11.538 11.1227 11.5297 11.1196 11.5198 11.1159Z" fill="#0A0A0A"/>
</svg>
