<svg width="24" height="24" viewBox="0 0 24 24" fill="none" xmlns="http://www.w3.org/2000/svg">
<path fill-rule="evenodd" clip-rule="evenodd" d="M8.47838 2.80978L2.95685 2.11959C2.47155 2.05893 2.05896 2.47152 2.11962 2.95682L2.80981 8.47835C2.88722 9.09764 3.64304 9.35696 4.08435 8.91565L5.90727 7.09273C9.62601 10.513 11 13.717 11 16V20.9999V21C11 21.0672 11.0066 21.1328 11.0193 21.1963C11.0846 21.5242 11.3101 21.7942 11.6108 21.9214C11.7304 21.972 11.8619 22 12 22C12.5523 22 13 21.5523 13 20.9999V20.9999V16C13 12.8627 14.3383 10.3503 18.0749 7.07488L19.9157 8.91565C20.357 9.35696 21.1128 9.09764 21.1902 8.47835L21.8804 2.95682C21.9411 2.47152 21.5285 2.05893 21.0432 2.11959L15.5217 2.80978C14.9024 2.88719 14.643 3.643 15.0843 4.08432L16.6579 5.65786C14.3511 7.69455 12.7876 9.57771 11.8988 11.5944C10.9846 9.68734 9.48238 7.67735 7.32231 5.67769L8.91568 4.08432C9.357 3.643 9.09767 2.88719 8.47838 2.80978Z" fill="#0A0A0A"/>
</svg>
